<?xml version="1.0" encoding="UTF-8" standalone="no"?>
<!-- Created with Inkscape (http://www.inkscape.org/) -->

<svg
   width="137.64899mm"
   height="53.4081mm"
   viewBox="0 0 137.64898 53.4081"
   version="1.1"
   id="svg1"
   xmlns:xlink="http://www.w3.org/1999/xlink"
   xmlns="http://www.w3.org/2000/svg"
   xmlns:svg="http://www.w3.org/2000/svg">
  <defs
     id="defs1" />
  <g
     id="layer2"
     transform="matrix(0.13606995,0.02979228,-0.02979228,0.13606995,1944.4044,-372.0284)">
    <g
       id="g16-1-0-8"
       transform="matrix(7.906858,-1.726935,1.726935,7.906858,-19508.044,-3180.9657)"
       style="font-weight:300;font-size:17.5244px;font-family:Rowdies;-inkscape-font-specification:'Rowdies Light';letter-spacing:3.70417px;fill:#fdec50;fill-opacity:1;stroke-width:4">
      <g
         id="g13-5-1-7-9-1"
         transform="matrix(0.81206961,0,0,0.81206961,446.68399,1130.5444)"
         style="fill:#fdec50;fill-opacity:1">
        <path
           style="fill:#fdec50;fill-opacity:1;stroke-width:0.264583"
           d="m 128.71256,155.11699 c 0.58921,-0.0731 0.67454,0.73995 1.12657,0.90843 0.084,0.0313 0.18426,-0.0623 0.26731,-0.0286 0.0997,0.0404 0.13048,0.18204 0.2272,0.22905 0.25135,0.12216 0.6927,-0.16645 0.97491,-0.10432 0.19591,0.0432 0.36533,0.18198 0.56396,0.21002 0.10512,0.0148 0.82919,-0.0339 1.00052,-0.10706 0.15864,-0.0678 0.288,-0.19448 0.44792,-0.25913 0.0817,-0.033 0.18286,0.009 0.26256,-0.0281 0.1721,-0.0807 0.30165,-0.23672 0.47391,-0.31701 0.7304,-0.34045 -0.39508,0.66475 0.76932,-0.3527 0.084,-0.0734 0.11806,-0.18958 0.18669,-0.27741 0.31242,-0.39987 0.60276,-0.8204 0.95582,-1.1849 0.1396,-0.14412 0.40409,-0.15254 0.50672,-0.32497 0.14505,-0.24371 0.0823,-0.56554 0.18142,-0.83128 0.18275,-0.49011 0.44976,-0.94474 0.65949,-1.42392 0.0804,-0.18372 0.0852,-0.40699 0.21044,-0.56364 0.055,-0.0687 0.23023,0.0538 0.26256,-0.0281 0.0617,-0.15622 -0.064,-0.33337 -0.0536,-0.50099 0.023,-0.36916 0.14655,-0.72918 0.15314,-1.099 0.0127,-0.71753 -0.15272,-1.42714 -0.22907,-2.14071 -0.0382,-0.35678 0.009,-0.7335 -0.11454,-1.07036 -0.0897,-0.24472 -0.91777,-1.15658 -1.20824,-1.21889 -0.17536,-0.0377 -0.35737,0.082 -0.535,0.0573 -0.19874,-0.0277 -0.36369,-0.19864 -0.56401,-0.21039 -0.20565,-0.0121 -2.56394,0.18285 -2.90462,0.31082 -0.18784,0.0706 -0.32941,0.23104 -0.50671,0.32496 -0.25066,0.13281 -0.53525,0.20048 -0.77404,0.35358 -0.10676,0.0684 -0.133,0.22646 -0.23907,0.29596 -0.0712,0.0466 -0.17931,-0.0135 -0.25415,0.0272 -0.32218,0.1753 -0.45745,0.57562 -0.71782,0.83394 -2.02427,2.00832 1.01016,-1.5543 -1.94024,2.10248 -0.23897,0.29617 -0.39731,0.68181 -0.71679,0.88857 -0.0739,0.0478 -0.20046,-0.0343 -0.26256,0.0281 -0.0503,0.0505 0.0607,0.1524 0.0228,0.21283 -2.03056,3.23465 0.57663,-1.6723 -1.12586,2.00163 -0.0533,0.11515 -0.17413,0.18727 -0.23903,0.29633 -0.33081,0.55583 -0.67126,1.11433 -0.89858,1.71989 -0.0309,0.0825 0.0466,0.17653 0.0281,0.26256 -0.12666,0.58585 -0.45018,1.11265 -0.62631,1.68558 -0.30129,0.98002 -0.44625,1.9689 -0.22223,2.98016 0.11806,0.5328 0.26516,1.05995 0.43952,1.57707 0.18123,0.53754 0.53694,1.00685 0.70677,1.54811 0.0537,0.17123 -0.0173,0.37211 0.0573,0.53535 0.0527,0.11536 0.22321,0.13504 0.29629,0.23867 0.0414,0.0586 0.0153,0.14263 0.0229,0.21393 0.18958,0.15281 0.41345,0.27087 0.56873,0.45844 0.96572,1.1665 0.29322,0.97026 1.56674,1.99756 0.15618,0.12599 0.38617,0.11746 0.56401,0.21041 0.22218,0.11612 0.34406,0.40419 0.58536,0.47218 0.0188,0.005 2.1738,0.30762 2.18521,0.30766 0.44854,0.002 0.88954,-0.1511 1.33803,-0.14318 0.28357,0.005 0.54883,0.15575 0.83128,0.18142 0.35248,0.0321 3.23433,-0.28515 3.46924,-0.37124 0.18825,-0.069 0.32401,-0.24129 0.5064,-0.32456 0.33646,-0.15361 0.71487,-0.20906 1.04171,-0.38222 0.11214,-0.0594 0.13378,-0.22543 0.23904,-0.29633 0.0664,-0.0447 0.17644,0.0247 0.23878,-0.0255 0.0401,-0.0324 -0.0516,-0.11596 -0.0164,-0.15358 0.0407,-0.0436 0.11848,-0.0127 0.17772,-0.019 0.0695,-0.1777 0.0858,-0.38696 0.20853,-0.5331 0.0565,-0.0674 0.19477,0.028 0.26256,-0.0281 0.66873,-0.55423 -0.96137,0.31789 0.76109,-0.70949 0.0757,-0.0451 0.17529,-0.0188 0.26293,-0.0281 0.0615,-0.0763 0.10582,-0.17037 0.1845,-0.22872 0.0389,-0.0289 0.12392,0.0283 0.14481,-0.0155 0.37625,-0.78955 -1.04407,0.70761 0.1693,-0.75787 0.15806,-0.19089 0.66715,-0.29352 0.74068,-0.62037 0.0126,-0.0561 -0.11434,0.0122 -0.17151,0.0184 -0.34337,0.0367 -0.70593,-0.009 -1.03013,0.11023 -0.18837,0.0691 -0.31342,0.2711 -0.50672,0.32496 -0.5359,0.14937 -1.32702,-0.004 -1.86791,0.19988 -0.23335,0.088 -0.43361,0.25824 -0.67388,0.32511 -0.49163,0.13678 -1.80897,0.0361 -2.14072,0.22907 -0.10248,0.0596 -0.13731,0.20118 -0.2372,0.26507 -0.18517,0.11847 -0.44453,0.009 -0.65567,0.0702 -0.3553,0.10279 -0.67394,0.34286 -1.04171,0.38222 -0.28204,0.0302 -0.54815,-0.16518 -0.83132,-0.18179 -0.62696,-0.0368 -1.24644,0.23712 -1.8734,0.20047 -0.20015,-0.0117 -0.36505,-0.18224 -0.5636,-0.21007 -0.17604,-0.0247 -0.3557,0.0904 -0.53024,0.0567 -0.21136,-0.0408 -1.20891,-0.97518 -1.39499,-1.12529 -0.29626,-0.23899 -0.53337,-0.58045 -0.88862,-0.71715 -0.0795,-0.0306 -0.18337,0.0746 -0.25414,0.0272 -0.0593,-0.0397 -0.0152,-0.14189 -0.0228,-0.21282 -0.0376,-0.35116 -0.21173,-0.88808 -0.1325,-1.23821 0.003,-0.0153 0.41086,-1.11211 0.41622,-1.12235 0.0588,-0.11246 0.18044,-0.18375 0.23903,-0.29632 0.0916,-0.17595 0.082,-0.40335 0.20582,-0.55834 0.0549,-0.0687 0.2073,0.0404 0.26257,-0.0281 0.0178,-0.0221 0.88563,-1.69365 0.89912,-1.71477 0.37213,-0.58302 0.90495,-1.12227 1.34143,-1.66335 0.36254,-0.44942 0.82169,-1.39801 1.42469,-1.46254"
           id="path2-0-03-8-2-2" />
        <path
           style="fill:#fdec50;fill-opacity:1;stroke-width:0.264583"
           d="m 148.87114,147.73615 c -0.18459,0.66565 -0.62129,1.23016 -0.83113,1.88356 -0.11309,0.35215 -0.0239,0.75243 -0.15313,1.09899 -0.68425,1.8348 -0.3252,-0.50351 -0.68814,1.15625 -0.0404,0.18507 0.15078,0.51149 0.0732,0.68383 -0.0464,0.10302 -0.17459,0.1576 -0.21291,0.26394 -0.30765,0.8537 -0.0241,0.68826 -0.39182,1.39529 -0.0575,0.11043 -0.18817,0.1751 -0.23446,0.29065 -0.029,0.0724 0.0577,0.16189 0.0249,0.23258 -0.0198,0.0426 -0.11173,-0.0224 -0.14006,0.015 -0.28635,0.37831 -0.37879,0.87443 -0.63407,1.27437 -0.13656,0.21394 -0.31868,0.39513 -0.47807,0.59265 -0.0797,0.0986 -0.13231,0.22752 -0.23908,0.29596 -0.0755,0.0484 -0.20742,-0.038 -0.26731,0.0286 -0.0538,0.0599 0.0598,0.16728 0.0257,0.24025 -0.19273,0.41267 -0.34343,-1.83723 -0.34775,-1.8776 -0.13125,-1.22652 0.0865,0.27585 -0.41087,-1.3094 -0.18893,-0.60212 -0.21103,-1.97208 -0.28578,-2.67058 -0.0272,-0.25378 0.0264,-0.53001 -0.0815,-0.76136 -0.0837,-0.17975 -0.2509,-0.31591 -0.31893,-0.50218 -0.1219,-0.33371 -0.0756,-0.7065 -0.11341,-1.05975 -0.004,-0.034 -0.0215,-0.9091 -0.10827,-1.01185 -0.0312,-0.037 -0.10218,0.0391 -0.14445,0.0155 -0.03,-0.0168 -0.007,-0.0683 -0.011,-0.10239 -0.0662,-0.0814 -0.10598,-0.19532 -0.19887,-0.24429 -0.10746,-0.0567 -0.2665,-0.0358 -0.36239,0.0388 -0.0976,0.076 -0.13583,0.21676 -0.24048,0.28279 -0.11,0.0694 -0.31876,-0.0686 -0.38799,0.0415 -0.0312,0.0496 0.0415,0.12079 0.0187,0.1748 -0.0399,0.0946 -0.15392,0.14488 -0.19332,0.23965 -0.049,0.11784 0.0869,0.26173 0.0407,0.38068 -0.0371,0.0956 -0.15283,0.14523 -0.19296,0.23961 -4.1e-4,10e-4 0.0366,0.33686 0.0364,0.33972 -0.0399,0.35899 -0.13386,0.71178 -0.15599,1.0723 -0.0217,0.35374 0.19706,0.71286 0.11312,1.05719 -0.015,0.0612 -0.18681,-0.0429 -0.18796,0.0201 -0.009,0.50169 0.14983,0.9951 0.16016,1.49675 0.0112,0.5456 -0.0752,1.08903 -0.0958,1.63436 -0.0331,0.87341 0.36442,1.70965 0.5452,2.56478 0.0856,0.4051 0.0278,0.833 0.13226,1.23602 0.0927,0.35802 0.29094,0.68325 0.38185,1.04175 0.80269,3.16515 -0.74968,-1.63515 0.43947,1.5767 0.12095,0.32669 0.0531,0.9414 0.13015,1.21627 0.0766,0.27311 0.27742,0.50079 0.35358,0.77403 0.0723,0.2592 -0.007,0.55006 0.0859,0.80268 0.0437,0.11913 0.22254,0.13578 0.29633,0.23904 0.0402,0.0563 0.0147,0.13774 0.0221,0.20661 0.10711,0.15892 0.18883,0.33834 0.32139,0.47677 0.17548,0.18326 0.41957,0.29213 0.59261,0.4777 0.13676,0.14667 0.16884,0.38044 0.32493,0.50636 0.15171,0.12237 0.77291,-0.14657 0.88812,-0.26555 0.5161,-0.53319 0.76888,-1.12789 1.16164,-1.74324 0.2048,-0.32084 0.57611,-0.53507 0.71715,-0.88861 0.0298,-0.0745 -0.0171,-0.15944 -0.0256,-0.23915 0.0708,-0.0878 0.15182,-0.16826 0.21222,-0.2635 0.90197,-1.42229 0.64914,-1.17665 1.5867,-2.87614 0.21666,-0.3927 0.44683,-0.77819 0.68814,-1.15624 0.0683,-0.10698 0.19423,-0.1776 0.23904,-0.29633 0.0505,-0.13397 -0.0801,-0.31265 -0.0483,-0.45125 0.1357,-0.59123 0.15862,0.0513 0.0965,-0.5289 -0.0162,-0.15114 -0.10482,-0.31223 -0.0485,-0.45344 0.0457,-0.11486 0.18354,-0.17822 0.22555,-0.29451 0.009,-0.0254 -0.0503,-0.38564 -0.0474,-0.44284 0.0245,-0.5235 -2.1e-4,-1.05497 0.10249,-1.56887 1.00713,-3.27478 0.35994,-0.69099 0.72675,-3.32561 0.0391,-0.28094 0.15605,-0.54884 0.18179,-0.83132 0.0474,-0.52064 -0.12457,-1.16407 -0.18099,-1.69128 -0.0161,-0.15042 0.0739,-0.36204 -0.0483,-0.45126 -0.0713,-0.0521 -0.21404,0.10145 -0.2633,0.0282 -0.0934,-0.13886 0.0185,-0.34806 -0.0534,-0.49916 -0.0541,-0.11365 -0.24337,-0.12024 -0.29586,-0.23465 -0.0748,-0.16301 0.005,-0.36668 -0.0573,-0.53499 -0.10437,-0.28359 -0.56418,-0.84095 -0.88073,-0.96507 -0.30479,-0.11951 -0.62343,0.24928 -0.81714,0.34488 -0.0496,0.0244 -0.58844,0.008 -0.61617,0.0659 -0.0354,0.0734 0.0439,0.16363 0.026,0.24317 -0.0435,0.19356 -0.17911,0.36179 -0.20582,0.55834 -0.032,0.23547 0.18302,2.03173 0.22794,2.13011 0.51706,1.13194 0.16669,-0.97243 0.35252,0.76416"
           id="path3-3-0-5-5-8" />
        <path
           style="fill:#fdec50;fill-opacity:1;stroke-width:0.264583"
           d="m 154.73465,148.18835 c -10e-4,1.00728 0.39646,2.1871 0.33907,3.16865 -0.0166,0.28314 -0.14208,0.55042 -0.18142,0.83129 -0.0294,0.20953 0.1408,0.51315 0.0764,0.71418 -0.0243,0.076 -0.10038,0.12417 -0.15058,0.18625 -0.056,0.25665 -0.13238,0.50968 -0.16801,0.76994 -0.062,0.45321 -0.0463,0.91596 -0.12451,1.36667 -0.25008,1.44133 -0.0875,-0.0726 -0.44947,0.85997 -0.0303,0.0783 0.0496,0.16968 0.0268,0.25049 -0.0217,0.0767 -0.13125,0.10878 -0.15021,0.18622 -0.13951,0.57003 -0.1258,1.32944 -0.33797,1.89846 -0.0443,0.1189 -0.19194,0.17848 -0.23904,0.29633 -0.0454,0.11351 0.15996,1.67899 0.19402,1.81306 0.091,0.35851 0.22862,0.70523 0.38222,1.0417 0.40575,0.88893 0.28859,0.17029 0.3532,0.77408 0.0766,0.71546 -0.0749,-0.14089 0.19598,0.38663 0.0374,0.0728 -0.0387,0.19428 0.0261,0.24427 0.68668,0.52942 0.40265,0.004 1.09352,0.15374 0.46455,0.1005 0.0926,0.37585 0.54476,0.2069 0.2618,-0.0978 0.49879,-0.25513 0.76087,-0.35217 0.21088,-0.0781 0.57842,0.0343 0.76903,-0.0823 0.10127,-0.062 0.13573,-0.20403 0.23713,-0.26579 0.0692,-0.0422 0.21513,0.0507 0.24172,-0.0259 0.0564,-0.16225 -0.11579,-0.35175 -0.0548,-0.51232 0.15915,-0.41933 0.5083,-0.74538 0.68813,-1.15626 0.11374,-0.25985 0.0827,-0.56555 0.18179,-0.83132 0.39906,-1.06974 1.12593,-1.94539 1.29037,-3.11517 0.0421,-0.2998 -0.11141,-1.33525 -0.15911,-1.48687 -0.0602,-0.19141 -0.25583,-0.31834 -0.32495,-0.50671 -0.0832,-0.22688 0.0268,-0.77938 -0.10816,-1.01076 -0.0415,-0.0711 -0.15282,-0.0828 -0.19193,-0.15515 -0.0397,-0.0736 0.002,-0.17101 -0.0267,-0.2494 -0.0986,-0.26589 -0.22049,-0.52342 -0.35321,-0.77407 -0.0939,-0.17732 -0.24124,-0.32435 -0.32497,-0.50671 -0.0624,-0.13592 0.0799,-0.36818 -0.0477,-0.44613 -0.0685,-0.0419 -0.1986,0.0947 -0.23952,0.0256 -0.7518,-1.2691 0.80794,0.24476 -0.38113,-1.03147 -1.28081,-1.0332 -0.0342,0.0755 -0.9172,-0.98447 -0.0812,-0.0975 -0.22738,-0.1325 -0.29634,-0.23904 -0.0477,-0.0737 0.0375,-0.20368 -0.0281,-0.26219 -0.0594,-0.053 -0.17544,0.0754 -0.23733,0.0254 -0.062,-0.0501 0.0144,-0.16871 -0.0254,-0.2377 -0.0449,-0.0778 -0.15739,-0.0962 -0.20969,-0.16916 -0.0284,-0.0395 0.0288,-0.12518 -0.0155,-0.14517 -0.38533,-0.17352 -0.15775,0.38731 -0.52928,-0.20043 -0.0471,-0.0744 0.0343,-0.20046 -0.0281,-0.26255 -0.0505,-0.0503 -0.15753,0.0678 -0.21284,0.0228 -0.0559,-0.0455 -0.0153,-0.14336 -0.023,-0.21503 -0.0866,-0.0699 -0.17325,-0.13977 -0.25988,-0.20964"
           id="path4-6-4-7-4-9" />
        <path
           style="fill:#fdec50;fill-opacity:1;stroke-width:0.264583"
           d="m 154.9317,144.16415 c -1.21432,-1.81596 -0.99681,-0.95741 -1.15064,-2.39495 -0.0286,-0.26767 -0.0573,-0.53536 -0.0859,-0.80304 -0.01,-0.0891 -0.0595,-0.18321 -0.0286,-0.26731 0.0429,-0.11634 0.15566,-0.19297 0.23349,-0.28945 0.86209,-1.06869 1.84837,-1.83558 3.32805,-1.70098 0.4811,0.0438 0.93022,0.26113 1.3953,0.39181 1.63668,0.4599 1.02024,0.0896 1.98755,0.86993 0.0964,0.0778 0.21995,0.13074 0.28909,0.23353 0.0834,0.12399 0.0318,0.29717 0.0477,0.44576 0.0184,0.17236 0.094,0.3481 0.0553,0.51708 -0.0876,0.38342 -0.59549,1.23193 -0.92578,1.41729 -0.39892,0.22387 -0.86163,0.31715 -1.30939,0.41086 -1.82803,0.38259 -0.85485,-0.0108 -2.70435,0.0186 -0.71755,0.0114 -1.42714,0.15272 -2.14071,0.22908"
           id="path5-1-4-4-05-3" />
        <path
           style="fill:#fdec50;fill-opacity:1;stroke-width:0.264583"
           d="m 163.50322,146.9756 c 3.41739,-1.73916 1.60665,-0.7199 5.38381,-3.14228 0.6754,-0.43314 1.38602,-0.81574 2.02618,-1.29943 5.5671,-4.20627 0.0458,-0.11629 2.20798,-2.13075 0.14672,-0.13671 0.38043,-0.16885 0.50633,-0.32493 0.36059,-0.44702 0.60854,-0.97442 0.92722,-1.45221 0.0705,-0.1056 0.21167,-0.1724 0.23902,-0.29633 0.0383,-0.17345 -0.11812,-0.36323 -0.0567,-0.52987 0.0305,-0.0826 0.22911,0.0533 0.26258,-0.0281 0.17487,-0.42548 -1.00901,-1.74546 -1.294,-1.97534 -0.0691,-0.0558 -1.29954,-0.86021 -1.72026,-0.89853 -0.43975,-0.04 -2.77405,0.23278 -3.2107,0.34357 -0.27504,0.0698 -0.49934,0.28381 -0.77438,0.35361 -0.34782,0.0882 -0.72469,0.0183 -1.07037,0.11454 -0.19316,0.0538 -0.31816,0.25555 -0.5064,0.32457 -0.16838,0.0618 -0.36661,-0.005 -0.53498,0.0572 -1.23296,0.45239 0.0111,0.13153 -0.74577,0.6213 -0.0737,0.0477 -0.1897,-0.0216 -0.26218,0.0281 -0.0861,0.059 -0.0821,0.20359 -0.16612,0.26558 -0.0612,0.0452 -0.17188,-0.0284 -0.22673,0.0243 -0.0424,0.0406 0.0282,0.11725 0.0187,0.17516 -0.0446,0.26813 -0.0827,0.54155 -0.18011,0.79527 -0.0455,0.11838 -0.19425,0.17732 -0.23908,0.29596 -0.0533,0.14117 0.0321,0.30011 0.0482,0.45016 0.0445,0.41566 0.13698,0.82896 0.13344,1.24698 -0.003,0.36986 -0.19248,0.73122 -0.15312,1.099 0.0302,0.28204 0.27743,0.50079 0.35355,0.77403 0.0945,0.33915 0.1227,0.69832 0.11239,1.05024 -0.0156,0.53112 -0.0816,1.06068 -0.0804,1.59202 0.001,0.44856 0.20495,0.89376 0.14319,1.33805 -0.0276,0.19868 -0.16596,0.36825 -0.21003,0.56396 -0.0837,0.37183 0.12664,0.75581 0.12166,1.13691 -0.0132,1.00284 -0.20254,1.99791 -0.22038,3.00068 -0.0114,0.64087 0.14285,1.33486 0.2112,1.97359 0.15216,1.42202 0.30433,2.84405 0.4565,4.26606 0.29554,2.76177 0.59107,5.52354 0.8866,8.2853 0.0905,0.84522 0.18089,1.69044 0.27134,2.53565 0.0128,0.11928 -0.06,0.64937 0.20105,0.50667 0.59217,-0.32365 0.66626,-1.07832 0.90394,-1.62134 0.12968,-0.29631 0.33579,-0.55715 0.44945,-0.85996 0.0309,-0.0824 -0.0477,-0.17676 -0.0281,-0.26256 0.39174,-1.71238 0.37195,1.65092 0.27628,-2.43003 -0.0105,-0.44844 -0.14496,-0.88949 -0.14318,-1.33804 0.001,-0.36984 0.13978,-0.72935 0.15278,-1.09896 0.009,-0.26892 -0.11032,-0.53469 -0.0859,-0.80267 0.0182,-0.19984 0.16656,-0.36821 0.21041,-0.56401 0.12844,-0.57366 -0.35343,-1.47385 -0.47525,-1.91094 -0.0482,-0.17289 0.0172,-0.37209 -0.0573,-0.53537 -0.0526,-0.1153 -0.22708,-0.13229 -0.29592,-0.23871 -0.0172,-0.0268 -0.0335,-0.42188 -0.0507,-0.47392 -1.30955,-3.41759 0.39141,1.25615 -0.43741,-1.72007 -0.0761,-0.27322 -0.26837,-0.50344 -0.35321,-0.77407 -0.0537,-0.17125 0.004,-0.36687 -0.0573,-0.53536 -0.0691,-0.18827 -0.24069,-0.32435 -0.32494,-0.50635 -0.12766,-0.27574 -0.19678,-1.83891 -0.20187,-1.88656 -0.13237,-1.23699 -0.26474,-2.47398 -0.39711,-3.71096 -0.0643,-0.60083 -0.0233,-1.31974 -0.20223,-1.88985 -0.0849,-0.27065 -0.28379,-0.4991 -0.35358,-0.77404 -0.14187,-0.55895 -0.13646,-1.27525 -0.19992,-1.86827 -0.0374,-0.34996 -0.0749,-0.69993 -0.11234,-1.04988 -0.007,-0.0668 0.0351,-0.16421 -0.0214,-0.20039 -0.0706,-0.0452 -0.16674,0.0178 -0.25011,0.0268"
           id="path6-0-4-1-9-6" />
        <path
           style="fill:#fdec50;fill-opacity:1;stroke-width:0.423949"
           d="m 198.33205,123.63604 c -2.63412,1.29815 -1.43864,0.70425 -3.75534,1.86177 -0.1816,0.0908 -0.40086,0.12928 -0.54491,0.27237 -0.10023,0.0995 -0.0186,0.32061 -0.13404,0.40195 -0.0851,0.06 -0.20322,-0.14524 -0.29628,-0.0988 -0.0932,0.0464 -0.0151,0.23429 -0.0988,0.29629 -0.73478,0.545 -1.56593,0.95031 -2.30627,1.48773 -0.26003,0.18878 -0.39445,0.53783 -0.68195,0.68139 -0.12864,0.0642 -0.27904,-0.19741 -0.40921,-0.13646 -0.12375,0.0581 -0.0233,0.30332 -0.12975,0.3891 -0.0683,0.055 -0.16658,-0.0555 -0.24988,-0.0833 -0.26857,0.35106 -0.47474,0.76034 -0.8059,1.05316 -0.53836,0.47607 -1.23707,0.74797 -1.77267,1.2271 -0.34869,0.31187 -0.9658,1.50205 -1.50055,1.77258 -0.12567,0.0636 -0.26927,-0.1834 -0.40136,-0.13384 -0.10695,0.04 -0.0339,0.23831 -0.10831,0.3248 -0.38223,0.44329 -0.8481,0.80834 -1.24199,1.24131 -0.41189,0.45278 -1.84661,2.13241 -2.31832,2.86337 -0.0701,0.10838 -0.0469,0.26266 -0.12248,0.36729 -0.18488,0.256 -0.50055,0.41338 -0.64413,0.69462 -0.26151,0.51206 -0.36376,1.09087 -0.54564,1.63628 -0.27278,0.81804 -0.54558,1.6361 -0.81837,2.45415 -0.13639,0.40901 -0.27278,0.81804 -0.40918,1.22706 -0.091,0.27281 -0.27273,0.53086 -0.27291,0.81841 -1.4e-4,0.20306 0.24173,0.34419 0.27239,0.54494 0.0339,0.22209 -0.33079,0.44799 -0.21326,0.63953 0.16276,0.26523 0.46097,0.4231 0.64896,0.6711 0.12273,0.16203 0.12928,0.40143 0.27296,0.54511 0.81941,0.81939 2.97638,1.63448 4.04342,1.80304 0.31756,0.0501 0.63427,-0.16096 0.95484,-0.13631 0.28653,0.0221 0.53135,0.25066 0.81787,0.27273 0.49053,0.0379 1.1075,-0.30323 1.58024,0.0729 0.74082,0.58935 1.31306,1.3667 2.02054,1.99568 0.33971,0.30201 0.76934,0.49691 1.09062,0.8184 1.08256,0.11633 0.72068,1.26279 1.22708,1.7727 0.34161,0.34393 0.53085,-0.15736 0.58995,0.51104 0.0114,0.12881 -0.12376,0.23868 -0.12267,0.36785 0.007,0.64274 0.10408,1.2886 0.27225,1.909 0.0523,0.19279 0.23712,0.33862 0.26789,0.53598 0.0204,0.13077 -0.0838,0.25118 -0.12564,0.37678 -0.3604,1.08079 -0.53321,2.24351 -1.08121,3.24237 -0.43723,0.79696 -1.14858,1.41444 -1.6368,2.18122 -0.15431,0.24243 -0.18182,0.54524 -0.27273,0.81786 -0.0432,0.12967 -0.0178,0.31066 -0.12975,0.3891 -0.083,0.0581 -0.20067,-0.14682 -0.28844,-0.0962 -0.099,0.0571 -0.0389,0.2346 -0.10849,0.32534 -0.46675,0.60968 -0.97731,1.18498 -1.48727,1.75898 -0.21356,0.24027 -0.48828,0.42534 -0.68157,0.68215 -0.0846,0.11248 -0.011,0.33173 -0.13366,0.40082 -0.11119,0.0625 -0.24406,-0.16645 -0.36337,-0.12117 -0.0974,0.0371 -0.0116,0.23995 -0.099,0.29684 -0.48072,0.31276 -1.07695,0.42935 -1.53918,0.76889 -3.99505,2.93499 0.29368,0.23677 -2.04558,2.04552 -0.4532,0.3504 -1.03676,0.49462 -1.51867,0.8043 -0.60461,0.3885 -1.16164,0.84886 -1.77273,1.22709 -0.34555,0.2139 -0.76909,0.2965 -1.09056,0.54515 -0.11176,0.0864 -0.0111,0.3325 -0.13403,0.40193 -0.11106,0.0628 -0.24699,-0.17375 -0.36336,-0.12117 -0.25233,0.11383 -0.38561,0.40199 -0.61207,0.56121 -0.75274,0.52935 -1.56146,0.9756 -2.31817,1.4993 -0.42631,0.29501 -0.80178,0.65924 -1.22778,0.9547 -0.16303,0.11303 -0.38248,0.13604 -0.53227,0.26604 -0.0731,0.0634 -0.0113,0.22189 -0.0919,0.2756 -0.0626,0.0418 -0.14546,-0.10216 -0.21408,-0.0714 -0.0631,0.0283 -0.006,0.16224 -0.0656,0.19679 -0.053,0.0306 -0.12206,-0.0898 -0.17442,-0.0582 -0.35943,0.21759 0.11932,0.23237 0.12669,0.27022 0.0233,0.11921 -0.13526,0.22573 -0.1152,0.34547 0.091,0.54469 0.64225,0.81541 0.94109,1.19966 0.12482,0.16053 0.13472,0.39634 0.27276,0.54566 0.14136,0.15288 0.39507,0.13174 0.59256,0.1976 2.21883,0.7399 3.05237,0.16845 5.18622,-0.41309 0.49991,-0.13623 0.99984,-0.27246 1.49976,-0.40869 0.13392,0.0447 0.26568,0.17092 0.40193,0.13403 0.39064,-0.10598 0.72611,-0.35787 1.08837,-0.53843 5.92264,-2.95177 -0.2734,0.25419 5.04579,-2.86267 0.52605,-0.30828 1.13281,-0.47382 1.63622,-0.81789 0.11287,-0.077 0.0179,-0.31055 0.12974,-0.38908 0.0827,-0.0581 0.19742,0.14109 0.28792,0.096 0.0904,-0.045 0.0145,-0.22747 0.0958,-0.28734 3.7181,-2.73915 1.14764,-0.0793 5.42083,-4.0564 0.3327,-0.30966 0.49696,-0.76927 0.81841,-1.09061 0.14359,-0.14359 0.39867,-0.13148 0.54491,-0.27237 0.0941,-0.0908 0.0232,-0.28904 0.12416,-0.37233 0.12551,-0.10358 0.39103,0.02 0.47258,-0.1207 0.28834,-0.49744 0.29743,-1.11766 0.54564,-1.63628 0.2557,-0.53445 0.68962,-0.96939 0.95467,-1.49927 0.16385,-0.32761 0.65627,-1.60084 0.71825,-2.15393 0.0982,-0.87746 0.18771,-2.2077 0.13378,-3.12844 -0.0372,-0.63553 -0.26591,-1.25412 -0.2696,-1.89075 -7.6e-4,-0.133 0.13155,-0.24558 0.1262,-0.37845 -0.028,-0.69279 -0.47241,-1.31395 -0.57038,-2.00035 4e-5,-0.45448 0,-0.90902 -3e-5,-1.36353 -0.0909,-0.1818 -0.23519,-0.34582 -0.27273,-0.54566 -0.0212,-0.11281 0.16623,-0.22727 0.10886,-0.32646 -0.0651,-0.11246 -0.29141,-0.0195 -0.36952,-0.12323 -0.24472,-0.32483 -0.3246,-0.74988 -0.5455,-1.09133 -1.8593,-2.87399 -0.14916,0.004 -1.63574,-1.90898 -0.12484,-0.16054 -0.12954,-0.4013 -0.27278,-0.54566 -0.0993,-0.10027 -0.33231,-0.0109 -0.40136,-0.13384 -0.0627,-0.11158 0.17252,-0.24708 0.12154,-0.36448 -0.046,-0.10556 -0.23851,-0.0363 -0.32761,-0.10925 -0.2261,-0.18503 -0.37323,-0.45307 -0.59383,-0.64466 -0.34314,-0.29805 -0.74364,-0.52483 -1.0906,-0.81839 -0.22739,-0.22718 -0.45478,-0.45438 -0.68216,-0.68158 -0.0848,-0.17015 -0.12032,-0.37588 -0.25466,-0.51042 -0.084,-0.0841 -0.52846,-0.13669 -0.65184,-0.21736 -0.96283,-0.62972 -1.55194,-1.47735 -2.44073,-2.15506 -0.10569,-0.0807 -0.29194,-0.0252 -0.37849,-0.12621 -0.0519,-0.0605 0.0786,-0.14723 0.0757,-0.22697 -0.011,-0.30696 -0.0202,-0.62235 -0.11636,-0.91406 -0.12732,-0.38607 -0.43815,-0.69887 -0.54496,-1.09114 -0.0587,-0.21546 0.29633,-0.88864 0.37301,-1.11861 0.30045,-0.90098 0.51282,-1.83627 0.90132,-2.70291 0.29996,-0.66877 0.74786,-1.26143 1.09076,-1.90922 0.13321,-0.25154 0.0632,-0.6146 0.27011,-0.81003 0.12941,-0.12222 0.37002,-0.0706 0.4974,-0.19504 0.3251,-0.31765 0.53592,-0.73455 0.81842,-1.09061 0.76321,-0.96213 1.55506,-1.9013 2.31831,-2.8634 0.28257,-0.35603 0.49693,-0.7693 0.8184,-1.09059 0.14386,-0.14373 0.4013,-0.12955 0.54567,-0.27276 0.15878,-0.15765 0.095,-0.52045 0.23265,-0.69767 0.49093,-0.63242 1.19774,-1.06801 1.72971,-1.66632 0.302,-0.33967 0.57391,-0.70746 0.81839,-1.09061 0.0759,-0.11911 0.011,-0.33268 0.13404,-0.40195 0.11167,-0.0627 0.24984,0.17861 0.36445,0.12153 0.0126,-0.006 0.67664,-2.02912 0.7231,-2.16846"
           id="path7-63-4-8-4-8" />
        <path
           style="fill:#fdec50;fill-opacity:1;stroke-width:0.264583"
           d="m 206.04459,140.25201 c -0.44576,1.57939 -0.56082,3.21991 -0.76093,4.84123 -0.0879,0.71223 -0.23075,1.41982 -0.26371,2.13671 -0.021,0.45697 0.10786,0.91111 0.10232,1.36852 -0.004,0.35867 -0.13238,0.7093 -0.13181,1.068 6e-4,0.36987 0.12827,0.73153 0.13532,1.10133 0.009,0.44847 -0.10989,0.89036 -0.16483,1.33555 -0.12703,1.02919 -0.25405,2.05837 -0.38107,3.08755 -0.0774,0.62706 -0.0966,1.68127 -0.27322,2.21373 -0.0631,0.19036 -0.26097,0.3139 -0.33309,0.50102 -0.0931,0.24172 -0.0635,0.51417 -0.0952,0.77126 -0.0807,0.65384 -0.1614,1.30768 -0.2421,1.96152 -0.0378,0.30622 -0.036,0.7092 -0.12294,0.99609 -0.10726,0.35398 -0.30853,0.67675 -0.39902,1.03538 -0.19757,0.78284 -0.19779,1.60261 -0.29669,2.40391 -0.033,0.26705 -0.002,0.5501 -0.0989,0.80118 -0.0456,0.11832 -0.2295,0.1285 -0.30012,0.23384 -0.14258,0.21268 -0.0623,0.8852 -0.13623,1.10377 -0.091,0.26874 -0.27649,0.49928 -0.36574,0.7686 -0.0858,0.25894 -0.081,0.65624 -0.11659,0.94464 -0.0407,0.33003 -0.6311,1.54113 -0.49379,1.80298 0.0284,0.0541 0.13658,-0.0186 0.18177,0.0224 0.18287,0.16601 0.2911,0.40299 0.47203,0.57111 0.14692,0.13653 0.34907,0.20221 0.50103,0.33309 0.0961,0.0828 0.1379,0.2175 0.23418,0.30016 0.40206,0.3451 0.64659,0.34586 1.11121,0.40321 0.0623,0.008 0.13744,0.0617 0.18689,0.0231 0.0495,-0.0387 -0.0197,-0.14117 0.0231,-0.18725 0.17057,-0.18362 0.40884,-0.29354 0.58712,-0.46967 0.20403,-0.20153 0.80086,-0.89163 0.96603,-1.23666 0.038,-0.0795 0.003,-0.17916 0.0324,-0.26243 0.11229,-0.32367 0.31201,-0.61754 0.38868,-0.95144 1.5e-4,-7.8e-4 0.39538,-3.20414 0.39558,-3.20508 0.1258,-0.62169 0.35115,-1.21949 0.49793,-1.83657 0.24523,-1.03117 0.2912,-2.35936 0.41342,-3.34961 0.034,-0.27575 0.32321,-1.86286 0.26101,-2.11482 -0.0182,-0.0738 -0.11124,-0.11107 -0.13606,-0.18282 -0.0192,-0.0556 0.0334,-0.47117 0.0632,-0.51172 0.26314,-0.35832 1.80666,-1.13816 2.30334,-1.31433 0.93717,-0.33241 0.63306,0.0145 1.40148,-0.36952 0.11065,-0.0554 0.17919,-0.17866 0.29242,-0.22849 0.0544,-0.0239 0.13063,0.059 0.17701,0.0218 0.0476,-0.0382 0.015,-0.12118 0.0224,-0.18177 0.0711,0.009 0.15656,0.0702 0.21317,0.0263 0.0562,-0.0436 -0.0314,-0.16997 0.0261,-0.2117 0.14914,-0.10811 0.36776,-0.0822 0.52082,-0.18474 0.28634,-0.19172 2.61541,-1.90074 2.99603,-2.33607 0.0562,-0.0642 -0.003,-0.17599 0.0313,-0.25404 0.33005,-0.74714 0.90726,-1.3651 1.25852,-2.10251 0.31812,-0.66782 0.58769,-1.36154 0.79773,-2.07081 0.10191,-0.34405 0.03,-0.72432 0.13186,-1.06836 0.1534,-0.51802 0.51401,-0.50779 0.42954,-1.28249 -0.12673,-1.16197 -0.5322,-2.27442 -0.91991,-3.36744 -0.13402,-0.37809 -0.26808,-0.75618 -0.40214,-1.13427 0.0108,-0.0872 0.0581,-0.17766 0.0323,-0.2617 -0.0297,-0.0968 -0.14237,-0.14876 -0.18601,-0.24012 -0.0856,-0.17902 -0.0751,-0.40522 -0.19713,-0.56163 -0.12336,-0.15812 -0.35655,-0.194 -0.50101,-0.33309 -0.18286,-0.17606 -0.31223,-0.40025 -0.46842,-0.60032 -0.27732,-0.35525 -0.35823,-0.95942 -0.66521,-1.16155 -0.11561,-0.0761 -2.53953,-0.31545 -2.54919,-0.31463 -0.0581,0.007 -0.51125,0.42851 -0.57016,0.45843 -2.00614,1.01928 1.84353,-1.4388 -1.50033,1.17034 -0.45287,0.35336 -0.98879,0.58589 -1.46739,0.90353 -0.21142,0.14029 -0.43392,0.2766 -0.59995,0.46845 -0.27104,0.31315 0.26285,0.2985 -0.27034,0.2327"
           id="path8-2-7-5-6-0" />
        <path
           style="fill:#fdec50;fill-opacity:1;stroke-width:0.264583"
           d="m 223.33148,143.14782 c -0.85452,2.07807 -0.57501,4.38462 -1.06137,6.53394 -0.0816,0.36076 -0.30852,0.67675 -0.39904,1.03538 -0.1097,0.43493 -0.10989,0.89037 -0.16484,1.33555 -0.12775,1.03514 -0.25551,2.07028 -0.38327,3.10544 -0.04,0.32426 -0.29515,1.60114 -0.22858,1.85201 0.0521,0.19609 0.257,0.31402 0.38337,0.47272 0.15806,0.19849 0.26814,0.44401 0.46805,0.60028 0.17384,0.13588 1.36969,0.60175 1.7267,0.48436 0.0773,-0.0254 0.11479,-0.12592 0.19235,-0.15043 0.26684,-0.0842 0.55176,-0.0976 0.82212,-0.16979 0.19385,-0.0517 0.3682,-0.17654 0.56732,-0.20123 0.17641,-0.0219 0.36151,0.12412 0.52926,0.0653 0.0831,-0.0291 -0.037,-0.20792 0.0323,-0.26207 1.64987,-1.28733 -1.16171,2.82322 1.82262,-1.66787 0.22761,-0.34254 0.90003,-2.11742 0.86368,-2.60518 -0.0255,-0.34244 -0.5682,-1.24175 -0.6364,-1.43406 -0.16149,-0.4553 -0.29439,-0.92419 -0.36916,-1.40145 -0.0278,-0.17719 0.10134,-0.3582 0.0659,-0.534 -0.0251,-0.12441 -0.19133,-0.18072 -0.23421,-0.30016 -0.0451,-0.12557 0.0843,-0.32232 0.0561,-0.45479 -0.0212,-0.0993 -0.36196,-1.54101 -0.55559,-1.92657 -0.0569,-0.1134 -0.19128,-0.18072 -0.23421,-0.30015 -0.0297,-0.0828 0.0751,-0.18497 0.0323,-0.26172 -0.0314,-0.0562 -0.14709,0.0229 -0.19161,-0.0236 -0.0363,-0.0378 0.0338,-0.10582 0.0193,-0.15622 -0.0791,-0.27395 -0.31868,-0.89858 -0.54745,-1.06178 -0.29937,-0.21356 -0.18858,0.35175 -0.43233,-0.3072 -0.0311,-0.0841 0.0862,-0.1948 0.0329,-0.26682 -0.0507,-0.0684 -0.19571,0.0312 -0.25369,-0.0313 -0.0488,-0.0526 0.0498,-0.14575 0.0264,-0.21352 -0.0319,-0.0922 -0.14399,-0.13995 -0.1802,-0.2305 -0.0209,-0.0525 0.0324,-0.11296 0.0208,-0.16827 -0.0369,-0.17595 -0.13242,-0.33685 -0.16408,-0.51384 -0.0142,-0.0789 0.0574,-0.16355 0.0295,-0.23871 -0.0438,-0.1179 -0.18786,-0.18087 -0.22946,-0.29957 -0.0292,-0.0832 0.0718,-0.18361 0.0324,-0.26244 -0.0605,-0.12082 -0.26816,-0.0331 -0.40223,-0.0496"
           id="path9-0-6-9-9-2" />
        <path
           style="fill:#fdec50;fill-opacity:1;stroke-width:0.264583"
           d="m 224.36649,139.01929 c -1.01225,-2.45141 0.28261,-5.10847 1.84603,-7.03665 0.15975,-0.19702 0.43444,-0.27587 0.59989,-0.4681 0.0586,-0.068 -0.037,-0.21107 0.033,-0.26718 0.61457,-0.49227 2.0884,-0.34243 2.70915,-0.1948 0.16781,0.0399 1.29923,0.4281 1.53641,0.73213 0.96179,1.23298 1.02372,2.69125 0.84107,4.1711 -0.022,0.178 -0.001,0.36665 -0.0659,0.534 -0.0722,0.18723 -0.23633,0.32562 -0.33312,0.50139 -0.13684,0.24846 -0.26376,0.50363 -0.36606,0.76819 -0.0317,0.0821 0.0135,0.18695 -0.0324,0.26208 -0.11089,0.18165 -1.32685,1.10371 -1.42796,1.15444 -0.0802,0.0403 -0.18235,-0.0622 -0.26719,-0.033 -0.11449,0.0395 -0.16745,0.20027 -0.28625,0.2237 -0.17201,0.0339 -0.34804,-0.0862 -0.52198,-0.0644 -0.19902,0.0249 -0.37103,0.15928 -0.56728,0.20086 -0.34219,0.0725 -0.78447,-0.31362 -1.01185,-0.38242 -0.25757,-0.0779 -0.54319,-0.0224 -0.8012,-0.0989 -1.89405,-0.56113 0.11337,-0.25727 -1.29234,-0.43076"
           id="path10-6-3-7-2-1" />
        <path
           style="fill:#fdec50;fill-opacity:1;stroke-width:0.264583"
           d="m 232.51699,145.44471 c -0.0758,0.81535 -0.27566,1.62116 -0.3012,2.4404 -0.0116,0.36966 0.14353,0.73154 0.13496,1.1013 -0.0125,0.53802 -0.16532,1.06516 -0.19777,1.60235 -0.0544,0.89983 -0.005,1.80407 -0.0625,2.7037 -0.0746,1.16381 -0.40161,2.30636 -0.42855,3.47226 -0.009,0.36977 0.10704,0.73255 0.13532,1.10133 0.0445,0.57938 -0.14235,1.15341 -0.21353,1.73011 -0.60583,4.90861 -0.28417,0.44892 -0.0954,2.97088 0.0134,0.17886 -0.12585,0.36496 -0.0659,0.534 0.46754,1.31874 2.65104,1.20177 3.67313,0.99585 0.0126,-0.002 0.57879,-0.45868 0.59462,-0.4643 0.26925,-0.0957 0.32159,0.26439 0.52367,-0.17178 0.1905,-0.41114 0.27484,-0.86385 0.43041,-1.28943 0.2539,-0.69465 0.58765,-1.3613 0.79767,-2.07045 0.13679,-0.4618 0.60281,-4.41967 0.60915,-4.93555 0.006,-0.4574 -0.0933,-0.91114 -0.10198,-1.36848 -0.005,-0.26904 0.18883,-0.54758 0.0989,-0.80118 -0.0424,-0.1196 -0.18621,-0.18267 -0.2342,-0.30016 -0.0725,-0.17761 0.0903,-0.73132 0.11338,-0.91871 0.006,-0.0483 -0.0129,-0.10715 0.0179,-0.1449 0.0729,-0.0897 0.18234,-0.14228 0.27349,-0.21342 0.13298,-0.34513 0.22059,-0.7114 0.39905,-1.03537 0.0612,-0.11109 0.2283,-0.12932 0.30011,-0.23384 0.0471,-0.0686 -0.016,-0.17863 0.0306,-0.24748 0.0238,-0.0351 0.0842,0.0104 0.12628,0.0156 0.24906,0.0307 0.49811,0.0615 0.74717,0.0922 0.0294,0.004 1.13285,0.0511 1.33042,0.1642 0.0778,0.0446 0.1191,0.1355 0.16539,0.21236 0.22627,0.37575 0.40892,0.7778 0.65112,1.14351 0.21013,0.31726 0.52074,0.56562 0.70231,0.90006 0.19138,0.35254 0.29943,0.74649 0.40212,1.13427 0.0225,0.0851 -0.0866,0.19271 -0.0324,0.26206 0.0543,0.0695 0.20711,-0.0362 0.26243,0.0324 0.0536,0.0664 -0.0393,0.16907 -0.0314,0.25404 0.0303,0.32916 0.10223,0.65322 0.14501,0.98099 0.0957,0.7335 0.19349,1.46691 0.27026,2.20263 0.0475,0.45486 0.0315,0.91636 0.1024,1.36815 0.031,0.19824 0.16156,0.37065 0.20123,0.56734 0.0509,0.25235 -0.1138,0.50977 -0.0946,0.76651 0.062,0.83024 0.32887,1.6323 0.4934,2.44842 0.11215,0.55624 0.24128,1.10932 0.33657,1.66868 0.0621,0.36463 0.10745,0.73251 0.13532,1.10134 0.006,0.0878 -0.073,0.18399 -0.0324,0.26208 0.0279,0.0537 0.12248,0.004 0.1803,0.0223 0.42704,0.1325 0.83637,0.32406 1.27118,0.42813 0.24584,0.0589 2.08632,0.36851 2.39916,0.29611 0.0633,-0.0147 -0.0272,-0.15329 0.0239,-0.19344 0.0507,-0.0399 0.14115,0.0634 0.19198,0.0237 0.0508,-0.0397 0.007,-0.12974 0.0237,-0.19199 0.13721,-0.50681 0.28304,-1.01139 0.438,-1.51305 0.36537,-1.1829 0.73009,-2.44302 0.7283,-3.70615 -10e-4,-1.01688 -0.19067,-1.01943 -0.30327,-1.93544 -0.29215,-2.37689 0.24104,-0.39945 -0.70577,-3.06977 -0.20105,-0.5671 -0.48334,-1.11164 -0.6034,-1.70123 -0.0175,-0.0864 0.0586,-0.17827 0.0324,-0.26244 -0.0305,-0.098 -0.14931,-0.14828 -0.18942,-0.24275 -0.0207,-0.0488 0.0548,-0.11824 0.0195,-0.15769 -0.0405,-0.0452 -0.12044,-0.0149 -0.18066,-0.0223 -0.0563,-0.27661 -0.0742,-0.56386 -0.16885,-0.82978 -0.72136,-2.02672 -0.10085,0.11998 -0.90353,-1.4674 -0.0397,-0.0786 0.079,-0.18746 0.0323,-0.26207 -0.0379,-0.0606 -0.14958,0.007 -0.21277,-0.0263 -0.0906,-0.0479 -0.15374,-0.13572 -0.22801,-0.20638 -0.32491,-0.30917 -0.66269,-0.60588 -0.96947,-0.93304 -0.17362,-0.18514 -0.28559,-0.42427 -0.46842,-0.60031 -0.14447,-0.1391 -0.32054,-0.24563 -0.50103,-0.3331 -0.0756,-0.0366 -0.19142,0.0293 -0.25001,-0.0308 -0.047,-0.0482 0.0676,-0.14852 0.0247,-0.20038 -0.0487,-0.059 -0.30884,0.003 -0.37521,-0.0463 -0.0974,-0.0718 -0.12631,-0.22603 -0.23696,-0.27493 -0.16417,-0.0726 -0.36689,-0.001 -0.53437,-0.0659 -0.3743,-0.14424 -0.64156,-0.49072 -1.00244,-0.66586 -0.12393,-0.0601 -0.94701,-0.12292 -0.96581,-0.1192 -0.12171,0.0245 -0.18264,0.17342 -0.29359,0.22909 -0.29988,0.15049 -1.63704,0.56581 -1.94946,0.29671 -0.088,-0.0757 -0.12592,-0.19927 -0.21442,-0.27437 -0.15299,-0.12984 -0.37795,-0.17494 -0.50139,-0.33314 -0.27589,-0.3536 -0.39344,-0.8136 -0.66931,-1.16724 -0.12335,-0.15812 -0.37765,-0.17497 -0.50102,-0.33308 -0.12338,-0.15812 -0.11153,-0.38763 -0.20129,-0.56698 -0.0557,-0.11132 -0.1881,-0.17709 -0.22971,-0.29442 -0.0295,-0.0829 0.0865,-0.19267 0.0323,-0.26207 -0.27506,-0.35262 -0.66342,-0.60192 -0.96432,-0.93277 -0.25611,-0.28159 -0.42234,-0.64262 -0.70266,-0.90011 -0.29535,-0.27129 -0.68608,-0.4189 -1.0021,-0.66581 -0.10001,-0.0781 -0.11973,-0.24535 -0.23421,-0.30016 -0.1602,-0.0767 -0.38051,0.0324 -0.52888,-0.0653 -0.0734,-0.0484 0.0853,-0.19161 0.0323,-0.2617 -0.0515,-0.068 -0.16935,-0.0209 -0.25403,-0.0314 -0.0543,-0.007 -0.12719,-0.0615 -0.16281,-0.0201 -0.0536,0.0624 0.0357,0.19571 -0.0302,0.24492 -0.16077,0.12004 -0.40909,0.0778 -0.56732,0.20123 -0.15815,0.12333 -0.20226,0.34903 -0.3331,0.50102 -0.164,0.19052 -0.45061,0.25785 -0.59456,0.46393 -0.0797,0.11407 -0.0341,0.27618 -0.0511,0.41428 -0.0325,0.26309 -0.20489,1.14083 -0.14799,1.19903 0.0587,0.06 0.19889,-0.0358 0.25001,0.0308 0.0519,0.0677 -0.0588,0.17327 -0.0314,0.25405 0.0764,0.22488 0.35906,0.33787 0.43833,0.56177 0.0294,0.0832 -0.11142,0.22349 -0.0324,0.2628 0.16898,0.0841 0.37751,0.002 0.56628,0.003 z"
           id="path11-1-1-5-2-0" />
        <path
           style="fill:#fdec50;fill-opacity:1;stroke-width:0.264583"
           d="m 259.25814,148.93413 c -0.26192,0.25203 -0.34156,0.65622 -0.60348,0.90825 -0.2742,0.26385 -0.63616,0.4281 -0.90004,0.7023 -0.0622,0.0647 0.0153,0.19152 -0.033,0.26718 -0.0622,0.0975 -0.19828,0.12559 -0.2735,0.2134 -0.0271,0.0315 -0.0102,0.0825 -0.0153,0.12374 -0.0425,0.34396 -0.14337,0.68567 -0.12736,1.03187 0.0191,0.41485 0.85003,1.94147 1.07182,2.30155 0.19958,0.32401 0.56914,0.54357 0.70229,0.90006 0.0288,0.0773 -0.0721,0.17452 -0.0303,0.24565 0.0321,0.0545 0.12979,-7.1e-4 0.18835,0.0232 0.26119,0.1067 0.49573,0.27647 0.76348,0.36548 0.17016,0.0566 0.37207,-0.0112 0.53397,0.0659 0.11455,0.0546 0.12924,0.22884 0.23421,0.30016 0.21517,0.14618 0.51636,0.0637 0.77453,0.0956 0.8013,0.0989 1.6026,0.1978 2.40392,0.2967 0.15648,0.0193 0.50682,0.003 0.65079,0.0803 0.17231,0.092 0.31318,0.23563 0.48391,0.3306 0.24797,0.13795 0.50389,0.26378 0.76857,0.36611 0.0821,0.0318 0.19927,-0.0293 0.26206,0.0323 0.0481,0.0472 -0.0565,0.14125 -0.0248,0.20074 0.91429,1.71414 0.0725,-0.64443 0.6142,1.41873 0.002,0.004 0.40166,1.13016 0.40251,1.13431 0.0645,0.31665 -0.0792,0.64143 -0.11875,0.96215 -0.0439,0.35612 -0.0879,0.71223 -0.13186,1.06836 -0.0108,0.0873 0.037,0.20792 -0.0323,0.26207 -0.0693,0.0541 -0.19182,-0.0854 -0.26207,-0.0323 -0.0479,0.0362 -0.0146,0.35079 -0.0521,0.4223 -0.39266,0.74674 -0.97403,1.3875 -1.33692,2.14916 -0.0772,0.16202 0.0112,0.3723 -0.0659,0.53436 -0.004,0.006 -0.58809,0.45637 -0.59458,0.46393 -1.40862,1.64002 1.97904,-1.52861 -1.56627,1.7047 -0.18749,0.17098 -0.43442,0.27616 -0.59996,0.46846 -0.0585,0.0679 0.0167,0.19219 -0.0329,0.26682 -0.0703,0.10568 -0.22577,0.13138 -0.30015,0.2342 -0.0429,0.0593 0.006,0.15251 -0.0269,0.21791 -0.0458,0.0914 -0.13953,0.15015 -0.19957,0.23291 -0.11788,0.16241 -0.18677,0.36412 -0.33315,0.50139 -0.0981,0.092 -2.07432,1.565 -2.09535,1.63495 -0.0211,0.07 0.14815,0.049 0.21792,0.0269 0.11126,-0.0352 0.19641,-0.1262 0.2946,-0.18931 0.28905,-0.14503 0.5565,-0.34511 0.8671,-0.43511 0.35524,-0.10296 0.74171,-0.0489 1.10133,-0.13533 0.0182,-0.005 2.2508,-0.79994 2.26858,-0.80464 0.0852,-0.0225 0.17829,0.0586 0.26243,0.0324 0.0982,-0.0305 0.1548,-0.13722 0.24317,-0.18974 1.62965,-0.96836 -0.0658,0.24629 2.00477,-1.36932 0.50012,-0.39024 1.07233,-0.70254 1.50038,-1.17071 0.0493,-0.054 -0.0282,-0.16942 0.0268,-0.21754 0.049,-0.043 0.14927,0.0712 0.19418,0.024 0.0607,-0.064 -0.0164,-0.18902 0.0324,-0.26244 0.39691,-0.59748 0.8396,-1.16398 1.28745,-1.72431 3.98341,-4.6264 -0.1226,0.40313 1.63218,-2.23869 0.0702,-0.10565 0.22634,-0.13088 0.29979,-0.23426 0.0442,-0.0622 -0.007,-0.15915 0.028,-0.22702 0.35883,-0.70127 0.23433,-0.0522 0.30461,-0.62164 0.0466,-0.37798 0.0647,-0.8198 0.14475,-1.17275 0.14044,-0.61867 0.3512,-1.21974 0.49797,-1.83693 0.0415,-0.17448 0.0991,-0.35774 0.0659,-0.534 -0.022,-0.11671 -0.17943,-0.16897 -0.21915,-0.28089 -0.028,-0.079 0.052,-0.16851 0.0308,-0.24965 -0.15004,-0.57471 -0.32181,-1.15118 -0.58839,-1.68197 -0.0569,-0.11341 -0.19017,-0.18114 -0.23419,-0.30016 -0.0291,-0.0787 0.0823,-0.18352 0.0308,-0.24967 -0.0515,-0.066 -0.17974,0.0158 -0.2493,-0.0308 -0.10061,-0.0674 -0.13658,-0.20213 -0.22369,-0.28626 -0.22608,-0.21836 -0.47451,-0.4123 -0.7123,-0.61781 -0.24472,-0.21151 -0.5022,-0.40897 -0.73524,-0.63325 -0.18281,-0.17595 -0.26346,-0.45046 -0.46847,-0.59995 -0.058,-0.0422 -0.14881,0.005 -0.21351,-0.0264 -0.64755,-0.30994 -1.25104,-0.77254 -1.94468,-1.003 -0.26304,-0.0874 -0.62647,-0.009 -0.89208,-0.1101 -1.56687,-0.59454 0.23472,-0.0783 -2.03461,-0.75174 -0.14702,-0.0436 -0.32679,0.0253 -0.45663,-0.0564 -0.40084,-0.25207 -0.69029,-1.14705 -0.78757,-1.61429 -0.1042,-0.50067 0.3868,-1.34702 0.47928,-1.68842 0.86849,-3.20582 -0.79152,1.67982 0.46495,-1.56938 0.0574,-0.14865 -0.0669,-0.37624 0.0586,-0.4745 0.056,-0.0439 0.1696,0.0834 0.2117,0.0261 0.28519,-0.38787 0.44684,-0.85372 0.69853,-1.26412 0.31461,-0.51302 0.68906,-0.98798 0.99898,-1.50384 0.14608,-0.24314 0.20913,-0.53192 0.36606,-0.7682 0.0702,-0.10564 0.25284,-0.11645 0.2998,-0.23425 0.0244,-0.0614 -0.13117,-0.0162 -0.19673,-0.0243 -0.0362,-0.004 -0.0859,-0.0418 -0.10877,-0.0134 -0.037,0.0459 0.006,0.12324 -0.0217,0.17557 -0.0914,0.17606 -0.21794,0.3315 -0.3274,0.49691 -0.22143,0.33456 -0.38803,0.71333 -0.66622,1.00241 -0.17588,0.18275 -0.43124,0.27866 -0.59992,0.46808 -0.0533,0.0599 -0.0196,0.15914 -0.0295,0.23872 -0.0807,0.0698 -0.15853,0.14295 -0.24188,0.20953 -0.009,0.007 -1.78915,1.39673 -1.79439,1.4001 -0.27196,0.17507 -0.58623,0.27516 -0.86714,0.43548 -0.0951,0.0741 -0.19022,0.14822 -0.28534,0.22233 -0.0104,0.0846 0.0359,0.20151 -0.0314,0.25404 -0.0671,0.0525 -0.17323,-0.0594 -0.25366,-0.0313 -0.6359,0.49617 0.0409,0.0734 -0.51705,0.18706 -0.69213,0.14106 -1.32245,0.50366 -1.95371,0.82053 -0.40077,0.20115 -0.7573,0.48683 -1.16689,0.66937 -0.0805,0.0359 -0.19298,-0.0867 -0.26244,-0.0324 -0.38839,0.30348 0.38404,0.31419 -0.28247,0.23193"
           id="path12-5-7-3-4-5" />
      </g>
    </g>
    <g
       id="g1">
      <g
         id="g1105"
         transform="rotate(0.36298826,2597.0951,80333.752)">
        <text
           xml:space="preserve"
           style="font-style:normal;font-variant:normal;font-weight:300;font-stretch:normal;font-size:17.5243px;font-family:Rowdies;-inkscape-font-specification:'Rowdies Light';letter-spacing:3.70417px;fill:#000000;fill-opacity:1;stroke-width:4"
           id="text2-9-3"
           transform="matrix(-1.3079569,0.03746161,-0.03746161,-1.3079569,-15601.862,4898.5982)"><textPath
             xlink:href="#path13-2-5-9-2-5"
             id="textPath2-2-0"
             style="font-style:normal;font-variant:normal;font-weight:bold;font-stretch:normal;font-size:17.5243px;font-family:Rowdies;-inkscape-font-specification:'Rowdies Light';letter-spacing:3.70417px;fill:#ffffff;stroke-width:4"><tspan
   style="font-style:normal;font-variant:normal;font-weight:bold;font-stretch:normal;font-size:17.5243px;font-family:Rowdies;-inkscape-font-specification:'Rowdies Light';letter-spacing:2.83086px;stroke-width:4"
   id="tspan1-2-7">INDEPENDANTES</tspan>               <tspan
   style="font-style:normal;font-variant:normal;font-weight:bold;font-stretch:normal;font-family:Rowdies;-inkscape-font-specification:'Rowdies Light';letter-spacing:4.04409px;stroke-width:4"
   id="tspan10-8">COMPILATIONS</tspan></textPath></text>
      </g>
    </g>
  </g>
  <g
     id="layer4"
     transform="translate(696.57448,-300.01073)">
    <circle
       style="display:inline;fill:none;fill-opacity:1;stroke-width:0.35135"
       id="path13-2-5-9-2-5"
       cx="1208.2489"
       cy="-1611.8053"
       r="101.10806"
       transform="rotate(-157.0151)" />
  </g>
</svg>
